<svg width="25" height="24" viewBox="0 0 25 24" fill="none" xmlns="http://www.w3.org/2000/svg">
<path fill-rule="evenodd" clip-rule="evenodd" d="M0.666382 18.8557C0.666382 16.0154 2.96892 13.7129 5.80924 13.7129H19.5235C22.3638 13.7129 24.6664 16.0154 24.6664 18.8557V20.9129C24.6664 22.6171 23.2849 23.9986 21.5807 23.9986H3.7521C2.04791 23.9986 0.666382 22.6171 0.666382 20.9129V18.8557ZM5.80924 15.77C4.10505 15.77 2.72352 17.1516 2.72352 18.8557V20.9129C2.72352 21.481 3.18403 21.9415 3.7521 21.9415H21.5807C22.1487 21.9415 22.6092 21.481 22.6092 20.9129V18.8557C22.6092 17.1516 21.2277 15.77 19.5235 15.77H5.80924Z" fill="black"/>
<path fill-rule="evenodd" clip-rule="evenodd" d="M12.6659 2.05714C10.9617 2.05714 9.58021 3.43866 9.58021 5.14286C9.58021 6.84705 10.9617 8.22857 12.6659 8.22857C14.3701 8.22857 15.7516 6.84705 15.7516 5.14286C15.7516 3.43866 14.3701 2.05714 12.6659 2.05714ZM7.52307 5.14286C7.52307 2.30254 9.82561 0 12.6659 0C15.5062 0 17.8088 2.30254 17.8088 5.14286C17.8088 7.98318 15.5062 10.2857 12.6659 10.2857C9.82561 10.2857 7.52307 7.98318 7.52307 5.14286Z" fill="black"/>
</svg>
