<svg width="29" height="20" viewBox="0 0 29 20" fill="none" xmlns="http://www.w3.org/2000/svg">
<path d="M28.6483 9.62031C28.6072 9.52773 27.6147 7.32578 25.408 5.11914C22.4678 2.17891 18.7541 0.625 14.6666 0.625C10.5791 0.625 6.86544 2.17891 3.92521 5.11914C1.71857 7.32578 0.721302 9.53125 0.684974 9.62031C0.631669 9.74021 0.604126 9.86996 0.604126 10.0012C0.604126 10.1324 0.631669 10.2621 0.684974 10.382C0.72599 10.4746 1.71857 12.6754 3.92521 14.882C6.86544 17.8211 10.5791 19.375 14.6666 19.375C18.7541 19.375 22.4678 17.8211 25.408 14.882C27.6147 12.6754 28.6072 10.4746 28.6483 10.382C28.7016 10.2621 28.7291 10.1324 28.7291 10.0012C28.7291 9.86996 28.7016 9.74021 28.6483 9.62031ZM14.6666 17.5C11.0596 17.5 7.90841 16.1887 5.29982 13.6035C4.22952 12.5391 3.31891 11.3253 2.5963 10C3.31863 8.67451 4.22927 7.46072 5.29982 6.39648C7.90841 3.81133 11.0596 2.5 14.6666 2.5C18.2736 2.5 21.4248 3.81133 24.0334 6.39648C25.1058 7.46054 26.0184 8.67431 26.7428 10C25.8979 11.5773 22.217 17.5 14.6666 17.5ZM14.6666 4.375C13.5541 4.375 12.4666 4.7049 11.5415 5.32298C10.6165 5.94107 9.89554 6.81957 9.46979 7.84741C9.04405 8.87524 8.93266 10.0062 9.1497 11.0974C9.36674 12.1885 9.90247 13.1908 10.6891 13.9775C11.4758 14.7641 12.4781 15.2999 13.5692 15.5169C14.6604 15.734 15.7914 15.6226 16.8192 15.1968C17.847 14.7711 18.7255 14.0501 19.3436 13.1251C19.9617 12.2001 20.2916 11.1125 20.2916 10C20.2901 8.50863 19.6969 7.07879 18.6424 6.02424C17.5878 4.96968 16.158 4.37655 14.6666 4.375ZM14.6666 13.75C13.9249 13.75 13.1999 13.5301 12.5832 13.118C11.9665 12.706 11.4859 12.1203 11.2021 11.4351C10.9182 10.7498 10.844 9.99584 10.9887 9.26841C11.1334 8.54098 11.4905 7.8728 12.015 7.34835C12.5394 6.8239 13.2076 6.46675 13.935 6.32205C14.6625 6.17736 15.4165 6.25162 16.1017 6.53545C16.7869 6.81928 17.3726 7.29993 17.7846 7.91661C18.1967 8.5333 18.4166 9.25832 18.4166 10C18.4166 10.9946 18.0215 11.9484 17.3183 12.6516C16.615 13.3549 15.6612 13.75 14.6666 13.75Z" fill="black"/>
</svg>
