<svg width="92" height="30" viewBox="0 0 92 30" fill="none" xmlns="http://www.w3.org/2000/svg">
<g clip-path="url(#clip0_65_3146)">
<path d="M23.0367 10.6501H12.4938V13.7786H19.9724C19.601 18.1644 15.951 20.0358 12.5081 20.0358C10.2917 20.0358 8.16601 19.1553 6.59874 17.588C5.03147 16.0208 4.15099 13.8951 4.15099 11.6786C4.15099 9.46219 5.03147 7.33652 6.59874 5.76925C8.16601 4.20198 10.2917 3.3215 12.5081 3.3215C14.609 3.31823 16.6292 4.12991 18.1438 5.58578L20.3367 3.31435C18.2182 1.26724 15.3752 0.142382 12.4296 0.185781C10.9203 0.196568 9.42794 0.504522 8.03769 1.09206C6.64744 1.67959 5.38653 2.53521 4.32694 3.61005C3.26736 4.68488 2.42986 5.9579 1.86226 7.3564C1.29465 8.75491 1.00806 10.2515 1.01885 11.7608C1.02964 13.27 1.33759 14.7624 1.92512 16.1527C2.51266 17.5429 3.36827 18.8038 4.44311 19.8634C5.51795 20.923 6.79096 21.7605 8.18947 22.3281C9.58798 22.8957 11.0846 23.1823 12.5938 23.1715C18.7438 23.1715 23.251 18.9572 23.251 12.7215C23.2645 12.026 23.1998 11.3311 23.0581 10.6501H23.0367Z" fill="#4885ED"/>
<path d="M31.6725 8.38567C30.2142 8.39133 28.7902 8.82857 27.58 9.64229C26.3698 10.456 25.4276 11.6098 24.8722 12.9582C24.3167 14.3066 24.1729 15.7892 24.4587 17.2192C24.7446 18.6493 25.4475 19.9626 26.4787 20.9938C27.5098 22.025 28.8232 22.7278 30.2532 23.0137C31.6833 23.2996 33.1659 23.1558 34.5143 22.6003C35.8627 22.0448 37.0165 21.1026 37.8302 19.8925C38.6439 18.6823 39.0812 17.2583 39.0868 15.8C39.1022 14.822 38.921 13.851 38.5539 12.9445C38.1867 12.038 37.6412 11.2145 36.9496 10.5229C36.258 9.83131 35.4345 9.28575 34.528 8.91861C33.6215 8.55147 32.6504 8.37024 31.6725 8.38567ZM31.7154 11.2857C32.6143 11.2327 33.5083 11.4511 34.2816 11.9124C35.0549 12.3738 35.6717 13.0568 36.052 13.873C36.4324 14.6892 36.5587 15.6008 36.4146 16.4897C36.2705 17.3785 35.8627 18.2036 35.244 18.8578C34.6253 19.512 33.8243 19.9653 32.9449 20.1587C32.0654 20.3522 31.1482 20.2769 30.312 19.9427C29.4759 19.6085 28.7595 19.0307 28.2557 18.2844C27.752 17.538 27.4841 16.6575 27.4868 15.7571C27.4568 15.1824 27.5439 14.6077 27.7426 14.0676C27.9414 13.5276 28.2478 13.0336 28.6431 12.6155C29.0385 12.1974 29.5147 11.8639 30.0428 11.6353C30.5709 11.4068 31.1399 11.2878 31.7154 11.2857Z" fill="#DB3236"/>
<path d="M47.8291 8.38581C46.3705 8.39005 44.9458 8.8261 43.7346 9.63896C42.5235 10.4518 41.5802 11.6051 41.0236 12.9534C40.4671 14.3017 40.3222 15.7845 40.6073 17.215C40.8924 18.6455 41.5947 19.9596 42.6256 20.9915C43.6565 22.0234 44.9698 22.7269 46.4001 23.0134C47.8303 23.2998 49.3133 23.1564 50.6621 22.6011C52.0109 22.0459 53.1651 21.1037 53.9791 19.8933C54.7932 18.683 55.2306 17.2587 55.2362 15.8001C55.2516 14.8228 55.0706 13.8523 54.7039 12.9463C54.3372 12.0403 53.7923 11.2171 53.1015 10.5256C52.4107 9.83414 51.588 9.28843 50.6824 8.92086C49.7767 8.55329 48.8064 8.37134 47.8291 8.38581ZM47.8719 11.2858C48.7708 11.2328 49.6649 11.4512 50.4382 11.9126C51.2114 12.3739 51.8283 13.057 52.2086 13.8732C52.5889 14.6893 52.7152 15.601 52.5712 16.4898C52.4271 17.3787 52.0192 18.2037 51.4005 18.8579C50.7818 19.5122 49.9808 19.9654 49.1014 20.1588C48.222 20.3523 47.3047 20.277 46.4686 19.9428C45.6325 19.6086 44.9161 19.0308 44.4123 18.2845C43.9085 17.5382 43.6406 16.6577 43.6434 15.7572C43.6134 15.1826 43.7004 14.6078 43.8992 14.0678C44.0979 13.5277 44.4043 13.0337 44.7997 12.6156C45.1951 12.1975 45.6713 11.8641 46.1994 11.6355C46.7275 11.4069 47.2965 11.2879 47.8719 11.2858Z" fill="#F4C20D"/>
<path d="M63.665 8.39279C59.6936 8.39279 56.5721 11.8714 56.5721 15.7714C56.5429 17.6772 57.2616 19.5186 58.5742 20.9006C59.8868 22.2827 61.6888 23.0953 63.5936 23.1642C64.3622 23.2061 65.1299 23.0655 65.8338 22.7539C66.5377 22.4423 67.1578 21.9685 67.6436 21.3714V22.7999C67.6436 25.3499 66.0936 26.8714 63.7579 26.8714C62.9433 26.8646 62.1492 26.615 61.4774 26.1543C60.8055 25.6937 60.2864 25.043 59.9864 24.2856L57.1293 25.4714C57.6819 26.7723 58.6081 27.8801 59.7906 28.6545C60.9731 29.4288 62.3587 29.8349 63.7721 29.8214C67.7221 29.8214 70.7293 27.3356 70.7293 22.1214V8.83564H67.6507V10.0856C67.1458 9.53515 66.5289 9.09921 65.8414 8.8072C65.1538 8.51519 64.4117 8.37388 63.665 8.39279ZM63.9507 11.2856C65.9007 11.2856 67.8936 12.9499 67.8936 15.7856C67.8936 18.6214 65.9007 20.2642 63.9079 20.2642C63.3443 20.2499 62.7894 20.1223 62.2762 19.8889C61.7631 19.6556 61.3021 19.3213 60.9208 18.9061C60.5396 18.4908 60.2458 18.0031 60.0571 17.4719C59.8683 16.9407 59.7884 16.3769 59.8221 15.8142C59.8221 12.9571 61.865 11.2856 63.9507 11.2856Z" fill="#4885ED"/>
<path d="M84.5221 8.37158C80.7792 8.37158 77.6292 11.3502 77.6292 15.7502C77.5922 16.7198 77.7532 17.6869 78.1023 18.5923C78.4515 19.4977 78.9814 20.3225 79.6599 21.0163C80.3383 21.7101 81.151 22.2584 82.0484 22.6278C82.9457 22.9971 83.9089 23.1797 84.8792 23.1644C86.0961 23.1668 87.2953 22.8728 88.373 22.3078C89.4508 21.7428 90.3747 20.9238 91.0649 19.9216L88.5078 18.2216C88.1374 18.8502 87.6073 19.3696 86.9712 19.7272C86.3352 20.0847 85.6159 20.2676 84.8864 20.2573C84.1285 20.2886 83.3787 20.0924 82.7333 19.694C82.0879 19.2956 81.5765 18.7131 81.2649 18.0216L91.1721 13.9144L90.6578 12.7073C90.1856 11.4533 89.3474 10.3701 88.2521 9.59829C87.1567 8.82645 85.8547 8.40156 84.5149 8.37872L84.5221 8.37158ZM84.6506 11.2287C85.2095 11.2046 85.7637 11.3403 86.2482 11.6199C86.7327 11.8995 87.1275 12.3114 87.3864 12.8073L80.7721 15.5716C80.7393 15.0312 80.8138 14.4898 80.9913 13.9784C81.1689 13.467 81.446 12.9958 81.8066 12.5921C82.1671 12.1883 82.6041 11.86 83.0923 11.626C83.5804 11.392 84.1101 11.257 84.6506 11.2287Z" fill="#DB3236"/>
<path d="M72.9082 22.7285H76.1653V0.949951H72.9082V22.7285Z" fill="#3CBA54"/>
</g>
<defs>
<clipPath id="clip0_65_3146">
<rect width="91.4286" height="30" fill="white" transform="translate(0.286133)"/>
</clipPath>
</defs>
</svg>
