<svg width="35" height="30" viewBox="0 0 35 30" fill="none" xmlns="http://www.w3.org/2000/svg">
<path d="M25.3102 0C22.0828 0 19.2572 1.38783 17.4958 3.73369C15.7345 1.38783 12.9088 0 9.68148 0C7.11248 0.00289558 4.64953 1.02471 2.83297 2.84127C1.01641 4.65783 -0.0054052 7.12078 -0.00830078 9.68979C-0.00830078 20.6299 16.2127 29.4851 16.9035 29.8508C17.0856 29.9487 17.2891 30 17.4958 30C17.7026 30 17.9061 29.9487 18.0882 29.8508C18.7789 29.4851 35 20.6299 35 9.68979C34.9971 7.12078 33.9752 4.65783 32.1587 2.84127C30.3421 1.02471 27.8792 0.00289558 25.3102 0ZM17.4958 27.3189C14.642 25.656 2.49229 18.0808 2.49229 9.68979C2.49477 7.78385 3.253 5.9567 4.6007 4.609C5.94839 3.2613 7.77555 2.50307 9.68148 2.50059C12.7213 2.50059 15.2734 4.11972 16.3393 6.72033C16.4335 6.94965 16.5937 7.14579 16.7997 7.28382C17.0056 7.42186 17.2479 7.49556 17.4958 7.49556C17.7437 7.49556 17.9861 7.42186 18.192 7.28382C18.3979 7.14579 18.5582 6.94965 18.6523 6.72033C19.7182 4.11503 22.2704 2.50059 25.3102 2.50059C27.2161 2.50307 29.0433 3.2613 30.391 4.609C31.7387 5.9567 32.4969 7.78385 32.4994 9.68979C32.4994 18.0683 20.3465 25.6545 17.4958 27.3189Z" fill="black"/>
</svg>
