<svg width="20" height="20" viewBox="0 0 20 20" fill="none" xmlns="http://www.w3.org/2000/svg">
<path d="M0.277544 3.02042L2.97934 0.318617C3.16836 0.129602 3.39073 0.0517731 3.64646 0.0851288C3.90218 0.118484 4.10787 0.240788 4.26353 0.45204L6.58174 3.68753C6.7374 3.9099 6.79855 4.15729 6.7652 4.42969C6.73184 4.70209 6.62066 4.9328 6.43164 5.12182L4.44699 7.0898C5.58108 8.66862 6.84859 10.1585 8.24952 11.5594C9.65045 12.9604 11.1348 14.2223 12.7025 15.3453L14.6871 13.3773C14.8762 13.1883 15.1124 13.0827 15.3959 13.0604C15.6795 13.0382 15.9269 13.1049 16.1381 13.2606L19.3402 15.5288C19.5515 15.6844 19.6766 15.8929 19.7155 16.1542C19.7544 16.4155 19.6794 16.6406 19.4903 16.8296L16.7719 19.5314C16.7385 19.5425 16.6857 19.5481 16.6134 19.5481C16.5412 19.5481 16.3772 19.537 16.1214 19.5147C15.8657 19.4925 15.6016 19.4591 15.3292 19.4147C15.0568 19.3702 14.7094 19.2896 14.2869 19.1728C13.8644 19.0561 13.4335 18.9088 12.9943 18.7309C12.5552 18.553 12.0548 18.3167 11.4933 18.0221C10.9319 17.7274 10.3676 17.3939 9.80056 17.0214C9.23351 16.6489 8.61643 16.1875 7.94932 15.6372C7.28221 15.0868 6.62066 14.4836 5.96467 13.8276C5.1419 13.0048 4.39973 12.1682 3.73818 11.3176C3.07663 10.467 2.55128 9.69709 2.16213 9.00774C1.77298 8.31839 1.43943 7.65406 1.16147 7.01475C0.883504 6.37543 0.691709 5.8195 0.586083 5.34697C0.480457 4.87443 0.397068 4.46027 0.335917 4.10447C0.274765 3.74868 0.249748 3.48184 0.260867 3.30394L0.277544 3.02042Z" fill="black"/>
</svg>
