<svg width="27" height="30" viewBox="0 0 27 30" fill="none" xmlns="http://www.w3.org/2000/svg">
<path d="M22.6833 30C21.5789 30 20.6417 29.6139 19.8717 28.8417C19.1028 28.0683 18.7183 27.1294 18.7183 26.025C18.7183 25.8583 18.7917 25.4378 18.9383 24.7633L6.94333 17.6417C6.58333 18.0572 6.14278 18.3833 5.62167 18.62C5.10056 18.8567 4.54111 18.975 3.94333 18.975C2.84778 18.975 1.91667 18.585 1.15 17.805C0.383333 17.025 0 16.09 0 15C0 13.91 0.383333 12.975 1.15 12.195C1.91667 11.415 2.84778 11.025 3.94333 11.025C4.54 11.025 5.09944 11.1433 5.62167 11.38C6.14389 11.6167 6.58444 11.9433 6.94333 12.36L18.94 5.26833C18.8622 5.05278 18.8061 4.83889 18.7717 4.62667C18.7361 4.41333 18.7183 4.19555 18.7183 3.97333C18.7183 2.87 19.1056 1.93167 19.88 1.15833C20.6544 0.386111 21.5944 0 22.7 0C23.8056 0 24.7433 0.387222 25.5133 1.16167C26.2833 1.93611 26.6678 2.87611 26.6667 3.98167C26.6656 5.08722 26.2794 6.025 25.5083 6.795C24.7372 7.565 23.7983 7.94944 22.6917 7.94833C22.0894 7.94833 21.5339 7.825 21.025 7.57833C20.5161 7.33167 20.0828 7 19.725 6.58333L7.72667 13.705C7.80444 13.9206 7.86055 14.135 7.895 14.3483C7.93055 14.5606 7.94833 14.7778 7.94833 15C7.94833 15.2222 7.93055 15.4394 7.895 15.6517C7.85944 15.8639 7.80389 16.0783 7.72833 16.295L19.725 23.4167C20.0839 23 20.5172 22.6683 21.025 22.4217C21.5339 22.175 22.0894 22.0517 22.6917 22.0517C23.7961 22.0517 24.735 22.4383 25.5083 23.2117C26.2806 23.9872 26.6667 24.9278 26.6667 26.0333C26.6667 27.1389 26.2794 28.0767 25.505 28.8467C24.7306 29.6167 23.7889 30.0011 22.6833 30ZM22.6917 28.3333C23.3461 28.3333 23.8944 28.1122 24.3367 27.67C24.7789 27.2278 25 26.68 25 26.0267C25 25.3733 24.7789 24.825 24.3367 24.3817C23.8944 23.9383 23.3467 23.7172 22.6933 23.7183C22.04 23.7194 21.4917 23.9406 21.0483 24.3817C20.605 24.8228 20.3839 25.3706 20.385 26.025C20.3861 26.6794 20.6072 27.2278 21.0483 27.67C21.4894 28.1122 22.0361 28.3333 22.6917 28.3333ZM3.94333 17.3067C4.60556 17.3067 5.16111 17.0856 5.61 16.6433C6.05778 16.2011 6.28167 15.6533 6.28167 15C6.28167 14.3467 6.05778 13.7989 5.61 13.3567C5.16222 12.9144 4.60667 12.6933 3.94333 12.6933C3.29778 12.6933 2.75722 12.9144 2.32167 13.3567C1.88611 13.7989 1.66778 14.3467 1.66667 15C1.66556 15.6533 1.88389 16.2017 2.32167 16.645C2.75944 17.0883 3.3 17.3089 3.94333 17.3067ZM22.6933 6.28167C23.3467 6.28167 23.8944 6.06055 24.3367 5.61833C24.7789 5.17611 25 4.62778 25 3.97333C25 3.31889 24.7789 2.77111 24.3367 2.33C23.8944 1.88889 23.3467 1.66778 22.6933 1.66667C22.04 1.66556 21.4917 1.88667 21.0483 2.33C20.605 2.77333 20.3839 3.32167 20.385 3.975C20.3861 4.62833 20.6072 5.17611 21.0483 5.61833C21.4894 6.06055 22.0378 6.28167 22.6933 6.28167Z" fill="black"/>
</svg>
