<svg width="25" height="22" viewBox="0 0 25 22" fill="none" xmlns="http://www.w3.org/2000/svg">
<path d="M18.0238 0.5C15.8113 0.5 13.8741 1.47148 12.6666 3.11358C11.4591 1.47148 9.52198 0.5 7.30948 0.5C5.5483 0.502027 3.85981 1.2173 2.61447 2.48889C1.36912 3.76048 0.668611 5.48455 0.666626 7.28285C0.666626 14.9409 11.787 21.1396 12.2606 21.3956C12.3854 21.4641 12.5249 21.5 12.6666 21.5C12.8084 21.5 12.9479 21.4641 13.0727 21.3956C13.5463 21.1396 24.6666 14.9409 24.6666 7.28285C24.6646 5.48455 23.9641 3.76048 22.7188 2.48889C21.4734 1.2173 19.785 0.502027 18.0238 0.5ZM12.6666 19.6233C10.7102 18.4592 2.38091 13.1566 2.38091 7.28285C2.38261 5.9487 2.90242 4.66969 3.82634 3.7263C4.75025 2.78291 6.00287 2.25215 7.30948 2.25041C9.39341 2.25041 11.1431 3.38381 11.8738 5.20423C11.9383 5.36476 12.0482 5.50205 12.1894 5.59868C12.3306 5.6953 12.4967 5.74689 12.6666 5.74689C12.8366 5.74689 13.0027 5.6953 13.1439 5.59868C13.2851 5.50205 13.3949 5.36476 13.4595 5.20423C14.1902 3.38052 15.9398 2.25041 18.0238 2.25041C19.3304 2.25215 20.583 2.78291 21.5069 3.7263C22.4308 4.66969 22.9506 5.9487 22.9523 7.28285C22.9523 13.1478 14.6209 18.4581 12.6666 19.6233Z" fill="black"/>
</svg>
