<svg width="24" height="20" viewBox="0 0 24 20" fill="none" xmlns="http://www.w3.org/2000/svg">
<path d="M17.3571 0C15.1446 0 13.2075 0.925218 12 2.48913C10.7925 0.925218 8.85536 0 6.64286 0C4.88167 0.00193039 3.19319 0.683141 1.94784 1.89418C0.702493 3.10522 0.00198508 4.74719 0 6.45986C0 13.7532 11.1204 19.6567 11.5939 19.9005C11.7187 19.9658 11.8583 20 12 20C12.1417 20 12.2813 19.9658 12.4061 19.9005C12.8796 19.6567 24 13.7532 24 6.45986C23.998 4.74719 23.2975 3.10522 22.0522 1.89418C20.8068 0.683141 19.1183 0.00193039 17.3571 0Z" fill="#EA0038"/>
</svg>
