<svg xmlns="http://www.w3.org/2000/svg" height="2500" width="2500" viewBox="0 0 200.949 200.949">
<path d="M6.632 20.202c-8.16 10.623-8.36 28.1-2.947 49.757 7.62 30.51 20.77 61.335 26.898 81.927 7.053 21.057 7.1 31.856 9.836 33.255.269.147.582.194.97.194 3.601 0 12.668-5.624 31.85-11.425 20.32-6.914 53.074-14.054 82.371-25.5 20.61-8.071 34.703-18.266 38.775-30.946-6.562 8.864-18.536 16.3-34.363 22.492-29.298 11.455-62.037 18.59-82.367 25.506-19.179 5.806-28.234 11.443-31.839 11.443a2.4 2.4 0 01-.984-.2c-2.74-1.423-2.782-12.207-9.853-33.285-6.126-20.57-19.262-51.407-26.876-81.91-4.161-16.63-5.007-30.812-1.471-41.308m57.555 15.98c-4.71 0-8.968.59-12.625 1.82-14.276 4.375-19.925 17.7-18.825 36.236 1.115 18.505 6.848 37.728 11.106 51.693 4.687 14.177 7.89 23.126 13.712 26.108 1.756.912 3.8 1.313 6.209 1.313 5.578 0 13.05-2.17 23.03-5.24 13.852-4.607 32.84-11.066 48.581-20.884 15.748-9.82 23.352-22.146 18.677-36.321-4.291-13.96-20.83-29.799-43.492-41.486-16.676-8.62-33.255-13.24-46.373-13.24m4.02 112.608c-3.263 0-6.05-.522-8.18-1.632-10.322-5.34-18.501-31.105-18.355-57.586.071-17.292 11.018-26.818 27.432-26.818 8.765 0 19.096 2.731 30.155 8.448 31.748 16.387 39.92 42.147 18.353 57.586-17.082 12.265-36.816 20.002-49.405 20.002" fill="#b9d110"/>
<path d="M41.521 0c-6.2 0-11.693.76-16.268 2.313C15.577 5.247 9.575 11.45 6.632 20.202c3.339-4.339 8.024-7.542 14.196-9.41 4.602-1.57 10.1-2.325 16.322-2.325 21.3 0 51.02 8.893 81.718 24.745 39.663 20.483 68.942 46.364 75.06 66.952 2.089 6.22 2.15 11.985.457 17.3 5.565-7.517 7.21-16.083 3.958-25.762-6.111-20.562-35.403-46.457-75.055-66.932C92.573 8.91 62.818 0 41.521 0" fill="#b1ce79"/>
<path d="M37.15 8.467c-6.221 0-11.72.755-16.322 2.325-6.172 1.868-10.857 5.071-14.196 9.41-3.536 10.496-2.69 24.678 1.47 41.309 7.615 30.502 20.751 61.34 26.877 81.91 7.07 21.077 7.114 31.861 9.853 33.285a2.4 2.4 0 00.984.199c3.605 0 12.66-5.637 31.839-11.443 20.33-6.915 53.07-14.051 82.367-25.506 15.827-6.191 27.8-13.628 34.363-22.492 1.694-5.315 1.632-11.08-.458-17.3-6.117-20.588-35.396-46.469-75.059-66.952C88.17 17.36 58.45 8.467 37.15 8.467m26.614 144.885c-2.409 0-4.453-.4-6.21-1.313-5.822-2.982-9.024-11.93-13.711-26.108-4.258-13.965-9.991-33.188-11.106-51.693-1.1-18.535 4.55-31.86 18.825-36.236 3.657-1.23 7.916-1.82 12.625-1.82 13.118 0 29.697 4.62 46.373 13.24 22.662 11.686 39.2 27.526 43.492 41.485 4.675 14.175-2.93 26.502-18.677 36.321-15.74 9.818-34.729 16.277-48.582 20.884-9.979 3.07-17.45 5.24-23.03 5.24" fill="#6ea31b"/>
</svg>